HIERARCHY
ROOT Hips
{
	OFFSET 0.000000 0.000000 0.000000
	CHANNELS 6 Xposition Yposition Zposition Zrotation Yrotation Xrotation 
	JOINT LHipJoint
	{
		OFFSET 0.000000 0.000000 0.000000
		CHANNELS 3 Zrotation Yrotation Xrotation
		JOINT LeftUpLeg
		{
			OFFSET 1.363060 -1.794630 0.839290
			CHANNELS 3 Zrotation Yrotation Xrotation
			JOINT LeftLeg
			{
				OFFSET 2.448110 -6.726130 0.000000
				CHANNELS 3 Zrotation Yrotation Xrotation
				JOINT LeftFoot
				{
					OFFSET 2.562200 -7.039590 0.000000
					CHANNELS 3 Zrotation Yrotation Xrotation
					JOINT LeftToeBase
					{
						OFFSET 0.157640 -0.433110 2.322550
						CHANNELS 3 Zrotation Yrotation Xrotation
						End Site
						{
							OFFSET 0.000000 0.000000 0.000000
						}
					}
				}
			}
		}
	}
	JOINT RHipJoint
	{
		OFFSET 0.000000 0.000000 0.000000
		CHANNELS 3 Zrotation Yrotation Xrotation
		JOINT RightUpLeg
		{
			OFFSET -1.305520 -1.794630 0.839290
			CHANNELS 3 Zrotation Yrotation Xrotation
			JOINT RightLeg
			{
				OFFSET -2.542530 -6.985550 0.000000
				CHANNELS 3 Zrotation Yrotation Xrotation
				JOINT RightFoot
				{
					OFFSET -2.568260 -7.056230 0.000000
					CHANNELS 3 Zrotation Yrotation Xrotation
					JOINT RightToeBase
					{
						OFFSET -0.164730 -0.452590 2.363150
						CHANNELS 3 Zrotation Yrotation Xrotation
						End Site
						{
							OFFSET 0.000000 0.000000 0.000000
						}
					}
				}
			}
		}
	}
	JOINT LowerBack
	{
		OFFSET 0.000000 0.000000 0.000000
		CHANNELS 3 Zrotation Yrotation Xrotation
		JOINT Spine
		{
			OFFSET 0.028270 2.035590 -0.193380
			CHANNELS 3 Zrotation Yrotation Xrotation
			JOINT Spine1
			{
				OFFSET 0.056720 2.048850 -0.042750
				CHANNELS 3 Zrotation Yrotation Xrotation
				JOINT Neck
				{
					OFFSET 0.000000 0.000000 0.000000
					CHANNELS 3 Zrotation Yrotation Xrotation
					JOINT Neck1
					{
						OFFSET -0.054170 1.746240 0.172020
						CHANNELS 3 Zrotation Yrotation Xrotation
						JOINT Head
						{
							OFFSET 0.104070 1.761360 -0.123970
							CHANNELS 3 Zrotation Yrotation Xrotation
							End Site
							{
								OFFSET 0.000000 0.000000 0.000000
							}
						}
					}
				}
				JOINT LeftShoulder
				{
					OFFSET 0.000000 0.000000 0.000000
					CHANNELS 3 Zrotation Yrotation Xrotation
					JOINT LeftArm
					{
						OFFSET 3.362410 1.200890 -0.311210
						CHANNELS 3 Zrotation Yrotation Xrotation
						JOINT LeftForeArm
						{
							OFFSET 4.983000 -0.000000 -0.000000
							CHANNELS 3 Zrotation Yrotation Xrotation
							JOINT LeftHand
							{
								OFFSET 3.483560 -0.000000 -0.000000
								CHANNELS 3 Zrotation Yrotation Xrotation
								JOINT LeftFingerBase
								{
									OFFSET 0.000000 0.000000 0.000000
									CHANNELS 3 Zrotation Yrotation Xrotation
									JOINT LeftHandIndex1
									{
										OFFSET 0.715260 -0.000000 -0.000000
										CHANNELS 3 Zrotation Yrotation Xrotation
										End Site
										{
											OFFSET 0.000000 0.000000 0.000000
										}
									}
								}
								JOINT LThumb
								{
									OFFSET 0.000000 0.000000 0.000000
									CHANNELS 3 Zrotation Yrotation Xrotation
									End Site
									{
										OFFSET 0.000000 0.000000 0.000000
									}
								}
							}
						}
					}
				}
				JOINT RightShoulder
				{
					OFFSET 0.000000 0.000000 0.000000
					CHANNELS 3 Zrotation Yrotation Xrotation
					JOINT RightArm
					{
						OFFSET -3.136600 1.374050 -0.404650
						CHANNELS 3 Zrotation Yrotation Xrotation
						JOINT RightForeArm
						{
							OFFSET -5.241900 -0.000000 -0.000000
							CHANNELS 3 Zrotation Yrotation Xrotation
							JOINT RightHand
							{
								OFFSET -3.444170 -0.000000 -0.000000
								CHANNELS 3 Zrotation Yrotation Xrotation
								JOINT RightFingerBase
								{
									OFFSET 0.000000 0.000000 0.000000
									CHANNELS 3 Zrotation Yrotation Xrotation
									JOINT RightHandIndex1
									{
										OFFSET -0.622530 -0.000000 -0.000000
										CHANNELS 3 Zrotation Yrotation Xrotation
										End Site
										{
											OFFSET 0.000000 0.000000 0.000000
										}
									}
								}
								JOINT RThumb
								{
									OFFSET 0.000000 0.000000 0.000000
									CHANNELS 3 Zrotation Yrotation Xrotation
									End Site
									{
										OFFSET 0.000000 0.000000 0.000000
									}
								}
							}
						}
					}
				}
			}
		}
	}
}
MOTION
Frames: 7
Frame Time: 0.008333
0.141452 17.901830 11.187585 -6.388698 -7.171405 1.176706 0.193875 4.335059 2.738259 -9.016266 -8.333779 -31.792346 3.159692 12.377735 37.616311 -0.478853 3.566404 8.685396 0.113200 -2.169000 -5.973000 1.654357 -5.085623 5.252438 28.279631 10.492571 -3.945613 -1.186722 -6.048389 25.090373 -1.371803 3.165259 -1.552033 -0.182600 -2.752600 7.590700 5.474761 1.790217 5.167985 4.640084 2.981332 5.247567 -1.971772 1.388364 -7.381867 -5.649009 -3.942129 -16.004173 3.782861 -4.304105 16.301018 0.049700 -1.778900 8.429500 -7.103946 2.882500 -1.328407 -80.575877 6.057760 28.757469 14.716958 -24.444268 -3.312291 -0.334220 -0.680003 -9.148889 30.056203 18.305433 10.818400 -7.125000 0.000000 0.000000 2.337500 51.671700 0.384200 11.001404 -1.759862 -2.367174 72.290551 5.315271 22.234249 -13.069229 25.826253 -3.460309 1.046962 -0.225670 -0.951792 -20.202125 22.382309 -8.455800 7.125000 0.000000 0.000000 4.805100 -6.107300 4.282100
0.143623 17.902916 11.290954 -6.549684 -7.239333 1.246151 0.133568 4.315442 2.709114 -8.717631 -8.394949 -31.663643 2.808620 12.001469 36.209703 -0.571849 4.027236 8.862077 0.062069 -1.499133 -4.125449 1.674374 -5.094284 5.289607 28.402162 10.391457 -3.543642 -1.154255 -5.973761 24.887787 -1.358401 3.091348 -1.750305 -0.176065 -2.702787 7.452324 5.645684 1.826147 5.103948 4.673173 3.038100 5.237651 -2.050682 1.418039 -7.334277 -5.687180 -3.882926 -15.777542 3.865912 -4.252291 16.117873 0.084323 -1.754423 8.340765 -7.101607 2.874951 -1.331334 -80.651600 6.179377 28.389442 14.772351 -24.518442 -3.330040 -0.318501 -0.701678 -9.127096 29.617373 19.684180 11.351840 -7.125000 0.000000 0.000000 1.613693 53.141269 0.303834 11.001235 -1.758438 -2.368330 72.216519 5.453152 22.420634 -13.149615 25.933390 -3.495083 1.046933 -0.226419 -1.050039 -20.247423 22.471189 -8.507046 7.125000 0.000000 0.000000 4.785381 -6.005553 4.273731
0.144919 17.899505 11.394074 -6.699871 -7.315098 1.318321 0.073039 4.291858 2.675591 -8.420316 -8.450656 -31.565820 2.456233 11.616550 34.775797 -0.664148 4.510738 9.192460 0.053215 -1.299599 -3.577291 1.694574 -5.102339 5.327926 28.512831 10.280358 -3.150583 -1.120475 -5.897277 24.679906 -1.352484 3.046483 -1.924430 -0.171800 -2.670298 7.362055 5.791180 1.874757 5.056278 4.700311 3.110120 5.223394 -2.119981 1.455195 -7.299190 -5.707268 -3.849306 -15.602658 3.934307 -4.231795 15.965382 0.108372 -1.743903 8.268842 -7.100053 2.870043 -1.335097 -80.718367 6.313098 28.049832 14.845043 -24.618080 -3.355049 -0.302492 -0.725803 -8.980719 29.154332 21.250678 11.948441 -7.125000 0.000000 0.000000 0.775162 54.803982 0.162607 11.000621 -1.756007 -2.367454 72.150190 5.609676 22.575628 -13.223883 26.031884 -3.528274 1.046253 -0.223459 -1.141349 -20.292856 22.464679 -8.523248 7.125000 0.000000 0.000000 4.756846 -6.006800 4.248082
0.143662 17.882991 11.496471 -6.818586 -7.413699 1.398435 0.011862 4.256714 2.629306 -8.126847 -8.490444 -31.557986 2.100016 11.206413 33.262339 -0.754417 5.060310 9.970773 0.167573 -2.470748 -6.815937 1.715306 -5.108627 5.369592 28.588933 10.140158 -2.783499 -1.082872 -5.815383 24.456591 -1.368386 3.086262 -2.028186 -0.174151 -2.688297 7.411983 5.862574 1.960317 5.056309 4.710109 3.226585 5.196485 -2.161271 1.514153 -7.300541 -5.674655 -3.890248 -15.578581 3.959988 -4.302571 15.902227 0.101608 -1.774054 8.245913 -7.100786 2.872829 -1.341294 -80.759034 6.482095 27.793038 14.968149 -24.791930 -3.401212 -0.285635 -0.757065 -8.471271 28.620732 23.364337 12.729112 -7.125000 0.000000 0.000000 -0.397707 57.029572 -0.155990 10.998711 -1.750640 -2.360658 72.106307 5.820530 22.639138 -13.280317 26.105189 -3.556854 1.043678 -0.209694 -1.212442 -20.338686 22.180177 -8.437322 7.125000 0.000000 0.000000 4.702620 -6.308200 4.172072
0.142697 17.872813 11.595919 -6.880028 -7.468158 1.531706 -0.047929 4.221865 2.586407 -7.864503 -8.606193 -31.544311 1.764125 10.804444 31.840783 -0.816081 5.397109 10.208077 0.184077 -2.715232 -7.489566 1.738045 -5.114481 5.406303 28.603752 10.035122 -2.475110 -1.036952 -5.726555 24.200477 -1.361413 3.053079 -2.094594 -0.171024 -2.663652 7.343584 5.877852 2.029431 5.000903 4.705321 3.313637 5.162066 -2.174236 1.560495 -7.280842 -5.681841 -3.944126 -15.621527 3.995120 -4.374023 15.913065 0.104041 -1.803649 8.256403 -7.102764 2.879669 -1.343838 -80.785092 6.657584 27.953017 14.842402 -24.618452 -3.353995 -0.309363 -0.729664 -9.267859 29.449468 21.162957 11.828758 -7.125000 0.000000 0.000000 0.748123 54.655226 -0.174495 10.997975 -1.741733 -2.351668 72.031834 6.081248 22.746235 -13.339768 26.183402 -3.590038 1.037301 -0.188178 -1.328280 -20.300121 21.714398 -8.248212 7.125000 0.000000 0.000000 4.688665 -6.818575 4.112611
0.142011 17.868699 11.692545 -6.886652 -7.480366 1.715856 -0.106394 4.187301 2.546748 -7.631951 -8.794648 -31.525046 1.447690 10.410293 30.507188 -0.850368 5.530256 9.927557 0.106922 -2.072765 -5.708107 1.762705 -5.119919 5.438271 28.559915 9.963744 -2.222901 -0.983072 -5.631090 23.912967 -1.332548 2.950060 -2.125255 -0.162655 -2.598190 7.161930 5.839418 2.082801 4.892437 4.686572 3.372536 5.120460 -2.160090 1.594764 -7.240995 -5.727122 -4.010387 -15.728625 4.039299 -4.446123 15.994726 0.115276 -1.832712 8.298879 -7.105933 2.890387 -1.342887 -80.797167 6.839286 28.511906 14.478468 -24.112531 -3.217401 -0.371936 -0.646113 -11.314509 31.582154 14.831470 9.319422 -7.125000 0.000000 0.000000 4.113278 47.878082 0.094232 10.998362 -1.729437 -2.340580 71.928083 6.389692 22.895054 -13.402104 26.266315 -3.627628 1.027285 -0.159244 -1.486946 -20.180777 21.075112 -7.960340 7.125000 0.000000 0.000000 4.713256 -7.528969 4.068989
0.145004 17.862745 11.794996 -6.923878 -7.517904 1.863215 -0.177354 4.159964 2.507679 -7.354139 -9.034874 -31.418250 1.133291 9.974365 29.070180 -0.923739 5.873770 10.030962 0.083496 -1.862556 -5.126021 1.785859 -5.126671 5.475713 28.527264 9.840378 -1.937064 -0.940959 -5.550509 23.676569 -1.328534 2.915667 -2.229256 -0.153846 -2.526534 6.963274 5.873311 2.111501 4.711149 4.675895 3.398611 5.112610 -2.169099 1.615585 -7.135919 -5.707096 -3.982369 -15.717044 4.004105 -4.409040 16.004900 0.105906 -1.817314 8.300277 -7.107680 2.889390 -1.346495 -80.852632 6.941251 28.346267 14.541317 -24.199348 -3.239082 -0.357329 -0.666859 -10.734393 31.114370 16.427818 10.099354 -7.125000 0.000000 0.000000 3.536409 49.662393 0.261956 10.998301 -1.720382 -2.331534 71.843548 6.680211 23.071979 -13.429873 26.297863 -3.645022 1.020351 -0.138026 -1.574906 -20.135140 20.582958 -7.758489 7.125000 0.000000 0.000000 4.704634 -8.068858 4.011660
